<svg width="40" height="40" viewBox="0 0 40 40" fill="none" xmlns="http://www.w3.org/2000/svg">
  <rect width="40" height="40" rx="8" fill="url(#paint0_linear)" />
  <path d="M20 8C13.373 8 8 13.373 8 20C8 26.627 13.373 32 20 32C26.627 32 32 26.627 32 20C32 13.373 26.627 8 20 8ZM20 30C14.477 30 10 25.523 10 20C10 14.477 14.477 10 20 10C25.523 10 30 14.477 30 20C30 25.523 25.523 30 20 30Z" fill="white" />
  <path d="M21 14H19V21H26V19H21V14Z" fill="white" />
  <circle cx="20" cy="20" r="2" fill="white" />
  <defs>
    <linearGradient id="paint0_linear" x1="0" y1="0" x2="40" y2="40" gradientUnits="userSpaceOnUse">
      <stop stop-color="#00BCD4" />
      <stop offset="1" stop-color="#B388FF" />
    </linearGradient>
  </defs>
</svg>